<?xml version="1.0" encoding="UTF-8"?>
<svg width="146px" height="146px" viewBox="0 0 146 146" version="1.1" xmlns="http://www.w3.org/2000/svg" xmlns:xlink="http://www.w3.org/1999/xlink">
    <!-- Generator: Sketch 47.1 (45422) - http://www.bohemiancoding.com/sketch -->
    <title>gutenberg-blocks-logo</title>
    <desc>Created with Sketch.</desc>
    <defs></defs>
    <g id="Page-1" stroke="none" stroke-width="1" fill="none" fill-rule="evenodd">
        <circle id="Circle" fill="#A379E6" cx="73" cy="73" r="73"></circle>
        <path d="M108.099956,55.2884198 C108.088706,55.251155 108.073238,55.2174057 108.059175,55.1815471 C108.028239,55.1020957 107.99238,55.0254567 107.948084,54.9523332 C107.926288,54.9171777 107.903085,54.8827253 107.87707,54.8496792 C107.82504,54.7814775 107.767385,54.7203069 107.702699,54.6626519 C107.673871,54.6366368 107.647856,54.6099186 107.617622,54.586716 C107.60356,54.5761694 107.593013,54.561404 107.577545,54.5515605 C107.485438,54.4875775 107.387002,54.4369536 107.283645,54.3989856 L88.9718474,47.3889786 L88.9718474,46.2239253 C88.9718474,45.9384626 88.9402075,45.6614373 88.8783338,45.3921461 C88.7552896,44.8549701 88.5134197,44.3508402 88.1695989,43.8797565 C87.9973369,43.6442146 87.8004661,43.4178132 87.5789865,43.199146 C87.4207867,43.0430555 87.2506341,42.89259 87.0692317,42.7449369 C86.9996238,42.687985 86.9236879,42.6359548 86.8512676,42.5818153 C86.7345513,42.4932235 86.6199444,42.4053347 86.496197,42.3209615 C86.3963554,42.2527599 86.291592,42.1880737 86.1875317,42.1226845 C86.0834714,42.055889 85.978708,41.9904998 85.8690229,41.9258137 C85.7438693,41.8526902 85.6144971,41.7823792 85.4830155,41.7127713 C85.3873925,41.6621474 85.2924727,41.6108204 85.1947404,41.5616027 C85.0442748,41.4856668 84.8888875,41.4132465 84.7327971,41.3408261 C84.6512363,41.3021551 84.5668631,41.2641871 84.4817868,41.2269223 C84.3046031,41.1495802 84.1246069,41.0736443 83.9403921,41.0005209 C83.8721904,40.9738027 83.8039887,40.9477876 83.7357871,40.9210695 C83.5304789,40.8437274 83.3237646,40.7670884 83.1114253,40.6939649 C83.0636139,40.6777934 83.0150993,40.6630281 82.9672878,40.6461534 C82.7317459,40.5681082 82.4947978,40.4914692 82.2494124,40.4183458 C80.7475694,39.9711678 79.0889329,39.6435185 77.3712351,39.4403197 C76.6800779,39.3594621 75.9797803,39.2961822 75.2766703,39.2554018 C75.2745609,39.2554018 75.2745609,39.2554018 75.2738578,39.2554018 C74.5714509,39.2139183 73.8655284,39.192825 73.1638246,39.192825 L73.1631215,39.192825 L73.1617153,39.192825 C66.4568581,39.192825 59.3814618,41.0799723 57.7179035,44.6109909 C57.4802523,45.1151208 57.3536925,45.653 57.3536925,46.2239253 L57.3536925,47.0500796 L38.7177611,54.0734457 C38.6151071,54.1114136 38.5166717,54.1613344 38.4245643,54.2246143 C38.4105021,54.2337548 38.4013616,54.2464107 38.3872994,54.2569574 C38.3549564,54.2808631 38.3282382,54.3096907 38.2987076,54.3364088 C38.2361308,54.3926576 38.1791789,54.4517189 38.1278518,54.5171081 C38.1011336,54.5522636 38.0758217,54.5874191 38.0533222,54.6253871 C38.0097293,54.6956981 37.9745738,54.7695246 37.9443401,54.8461636 C37.9295748,54.8848347 37.9134033,54.9206933 37.9007473,54.9607705 C37.8684042,55.0746744 37.848014,55.1906875 37.8459047,55.3116224 C37.8459047,55.3165442 37.8444985,55.3207629 37.8444985,55.3256846 C37.8444985,55.3263878 37.8444985,55.3263878 37.8444985,55.327794 C37.8444985,55.3284971 37.8444985,55.3284971 37.8444985,55.3292002 L37.8444985,92.0723242 C37.8444985,92.627078 38.1869131,93.1248799 38.7051052,93.3231569 L72.6828974,106.328583 C72.6948502,106.333505 72.7075062,106.331396 72.7194591,106.335614 C72.8628935,106.386238 73.0105467,106.417175 73.1617153,106.417175 C73.3114777,106.417175 73.4577246,106.386941 73.5990497,106.338427 C73.6110026,106.334208 73.6222524,106.336317 73.6349084,106.331396 L107.288567,93.6508062 C107.810274,93.4546385 108.155502,92.9547272 108.155502,92.397161 L108.155502,55.654037 C108.155502,55.5281803 108.133002,55.4065423 108.099956,55.2884198 Z M60.0923061,45.88362 C60.1274616,45.7802629 60.1808979,45.6740933 60.2462872,45.5679236 C60.2687867,45.5306588 60.3004266,45.4940971 60.3271448,45.4568323 C60.3756594,45.3865213 60.4269864,45.3162103 60.488157,45.2451961 C60.5282343,45.199494 60.5767489,45.1530887 60.6217479,45.1066835 C60.6829185,45.0448098 60.7454953,44.9829361 60.8158063,44.9210624 C60.8755706,44.8697354 60.9402568,44.8177052 61.005646,44.7656751 C61.0752539,44.7101294 61.146268,44.6559899 61.222907,44.6004442 C61.3023584,44.5427892 61.3874347,44.4858373 61.4746204,44.4288854 C61.5463376,44.381777 61.6236797,44.3346687 61.7010218,44.2882634 C61.8036759,44.2256866 61.9112517,44.1624067 62.0251555,44.100533 C62.0947634,44.0625651 62.1678869,44.0260033 62.2403072,43.9873323 C62.3738981,43.9184275 62.5088952,43.8502258 62.6551421,43.7820242 C62.705766,43.7581184 62.7599055,43.7349158 62.8133419,43.7117132 C64.2631548,43.0585239 66.2417064,42.496739 68.6477489,42.1719022 C68.6561862,42.170496 68.6639204,42.1690898 68.6716547,42.1683866 C69.0168817,42.1226845 69.3691398,42.0804979 69.7319446,42.0460455 C69.7467099,42.0439362 69.760069,42.0432331 69.7741312,42.0411237 C70.136936,42.0052651 70.5088812,41.9750314 70.8892637,41.9511256 C70.891373,41.9511256 70.891373,41.9511256 70.8927792,41.9511256 C71.6226075,41.9040173 72.3756383,41.8744867 73.1631215,41.8744867 C73.990682,41.8744867 74.7866026,41.9026111 75.5501801,41.9539381 C76.827731,42.0397175 78.0061434,42.1936986 79.0840111,42.3947881 C79.1585408,42.4088503 79.2337735,42.4229125 79.3076001,42.4376778 C80.1604725,42.6036118 80.9451433,42.8018888 81.6580969,43.020556 C81.7305172,43.0430555 81.8022345,43.065555 81.8739517,43.0880546 C82.2191787,43.199146 82.5517498,43.3137529 82.859712,43.4332816 C82.8646337,43.4346878 82.8681493,43.4367971 82.873071,43.4389065 C83.1711897,43.5556227 83.4461057,43.6772608 83.7083658,43.800305 C83.7716457,43.8305388 83.8356287,43.8607725 83.8989086,43.8917093 C84.1534344,44.017566 84.3960074,44.1448289 84.6125653,44.2734981 C84.6188933,44.2784198 84.6252212,44.2819354 84.6315492,44.2868572 C84.8403729,44.4127139 85.0252908,44.5399768 85.1954435,44.6679428 C85.2411456,44.7016921 85.2847384,44.7354414 85.3276282,44.7698938 C85.4921559,44.9020784 85.6440277,45.03356 85.7684782,45.1650416 C86.112299,45.5313619 86.2922951,45.8927605 86.2922951,46.2246284 C86.2922951,47.9978719 81.1785759,50.5747702 73.1638246,50.5747702 C72.5711029,50.5747702 72.0008806,50.5564893 71.4412051,50.5297711 C71.2731618,50.52274 71.1107433,50.5107872 70.9462156,50.5002405 C70.546146,50.4749285 70.1524044,50.4439917 69.7699125,50.4067269 C69.6117128,50.3912585 69.4542161,50.3764931 69.2988288,50.3589154 C68.8502446,50.3082915 68.4136133,50.2492302 67.9917473,50.1824348 C67.9354985,50.1732943 67.8757341,50.1669664 67.8201884,50.1571228 C67.3251989,50.0762652 66.8541152,49.9834546 66.3999061,49.8829099 C66.3338138,49.8688477 66.2719401,49.8526762 66.2079571,49.8379109 C65.8191373,49.7486159 65.4471921,49.6522898 65.0928246,49.5517451 C65.0225136,49.5313549 64.9522026,49.5109647 64.8840009,49.4912776 C62.9841976,48.9287896 61.5878211,48.2151329 60.7961192,47.5042887 C60.7651824,47.4761643 60.7356517,47.4494461 60.7082304,47.4220248 C60.6365132,47.3545262 60.5669053,47.2877308 60.507141,47.2202322 C60.4276895,47.1316404 60.3545661,47.0416423 60.2955049,46.9544566 C60.2687867,46.9157856 60.2505058,46.8771145 60.2280063,46.8391466 C60.1865228,46.7667262 60.1506642,46.6957121 60.1225398,46.624698 C60.1084776,46.5916518 60.0958216,46.5579026 60.0859781,46.5248564 C60.0564475,46.4236086 60.0339479,46.3230638 60.0339479,46.2260346 C60.0332448,46.1128339 60.053635,45.9996332 60.0923061,45.88362 Z M86.2922951,50.2520427 L86.2922951,54.8405387 C86.2922951,56.6130791 81.1799821,59.1892743 73.165934,59.1892743 L73.165934,53.2536194 C78.1221566,53.2536194 83.2668127,52.2172352 86.2922951,50.2520427 Z M57.3536925,49.9145499 L57.3536925,49.9159561 L57.3536925,54.8405387 C57.3536925,59.4065353 65.4985191,61.8709359 73.1617153,61.8709359 C80.8270209,61.8709359 88.9725506,59.4065353 88.9725506,54.8405387 L88.9725506,50.2569644 L103.041079,55.6427873 L86.6797088,61.8090622 L73.165934,66.9023913 L60.9859589,62.2393656 L42.9589208,55.3390437 L57.3536925,49.9145499 Z M105.475949,91.4697589 L74.501843,103.140682 L74.501843,69.2627317 L85.530827,65.1066483 L105.475949,57.5911052 L105.475949,91.4697589 L105.475949,91.4697589 Z" id="Lego" fill="#FFFFFF" fill-rule="nonzero"></path>
    </g>
</svg>