<?xml version="1.0" encoding="UTF-8"?>
<svg width="146px" height="146px" viewBox="0 0 146 146" version="1.1" xmlns="http://www.w3.org/2000/svg" xmlns:xlink="http://www.w3.org/1999/xlink">
    <!-- Generator: Sketch 47.1 (45422) - http://www.bohemiancoding.com/sketch -->
    <title>gutenberg-blocks-logo</title>
    <desc>Created with Sketch.</desc>
    <defs></defs>
    <g id="Page-1" stroke="none" stroke-width="1" fill="none" fill-rule="evenodd">
        <circle id="Circle" fill="#131414" cx="73" cy="73" r="73"></circle>
        <g id="logomark" transform="translate(21.061980, 22.997816)" fill-rule="nonzero" fill="#FFFFFF">
            <g id="Group">
                <path d="M103.441935,62.8969355 L89.2553226,38.3269355 C88.9960235,37.8778163 88.516824,37.6011422 87.9982258,37.601129 L75.8003226,37.601129 L81.8622581,27.1030645 C82.1215637,26.6539339 82.1215637,26.1005822 81.8622581,25.6514516 L67.6741935,1.08290323 C67.4148945,0.63378404 66.9356949,0.357109949 66.4170968,0.357096774 L38.0496774,0.357096774 C37.5310793,0.357109949 37.0518797,0.63378404 36.7925806,1.08290323 L22.6059677,25.6514516 C22.3466621,26.1005822 22.3466621,26.6539339 22.6059677,27.1030645 L28.6679032,37.601129 L16.5179032,37.601129 C15.9993051,37.6011422 15.5201055,37.8778163 15.2608065,38.3269355 L1.07419355,62.8983871 C0.814887878,63.3475177 0.814887878,63.9008694 1.07419355,64.35 L15.2608065,88.9185484 C15.5201055,89.3676676 15.9993051,89.6443417 16.5179032,89.6443548 L44.8867742,89.6443548 C45.4053724,89.6443417 45.8845719,89.3676676 46.143871,88.9185484 L52.2580645,78.326129 L58.3722581,88.9170968 C58.6315571,89.366216 59.1107567,89.6428901 59.6293548,89.6429032 L87.9982258,89.6429032 C88.516824,89.6428901 88.9960235,89.366216 89.2553226,88.9170968 L103.441935,64.3485484 C103.701241,63.8994178 103.701241,63.3460661 103.441935,62.8969355 L103.441935,62.8969355 Z M99.6706452,62.171129 L74.6520968,62.171129 L62.1435484,40.5043548 L87.1606452,40.5043548 L99.6706452,62.171129 Z M59.6293548,37.601129 C59.1107567,37.6011422 58.6315571,37.8778163 58.3722581,38.3269355 L51.9241935,49.4956452 L40.563871,49.4956452 L53.0724194,27.828871 L78.0909677,27.828871 L72.4470968,37.601129 L59.6293548,37.601129 L59.6293548,37.601129 Z M78.0909677,24.9256452 L53.0709677,24.9256452 L40.5624194,3.26032258 L65.5795161,3.26032258 L78.0895161,24.9256452 L78.0909677,24.9256452 Z M38.0496774,4.71193548 L50.5582258,26.3772581 L38.0496774,48.0440323 L25.5396774,26.3772581 L38.0496774,4.71193548 Z M36.7925806,51.6716129 C37.0518797,52.1207321 37.5310793,52.3974062 38.0496774,52.3974194 L51.57,52.3974194 L56.6753226,62.171129 L31.5406452,62.171129 L19.0320968,40.5043548 L30.3445161,40.5043548 L36.7925806,51.6730645 L36.7925806,51.6716129 Z M4.00645161,63.6241935 L16.5164516,41.9574194 L29.025,63.6241935 L16.5164516,85.2895161 L4.00645161,63.6241935 Z M44.0477419,86.741129 L19.0306452,86.741129 L31.5391935,65.0758065 L56.5562903,65.0758065 L44.0477419,86.741129 L44.0477419,86.741129 Z M53.9332258,75.4243548 L60.3275806,64.3485484 C60.5743548,63.918871 60.5859677,63.3904839 60.3566129,62.9520968 L54.2525806,51.2666129 L59.6279032,41.9574194 L72.1364516,63.6241935 L59.6279032,85.2895161 L53.9332258,75.4243548 L53.9332258,75.4243548 Z M87.1591935,86.741129 L62.1435484,86.741129 L74.6520968,65.0758065 L99.6706452,65.0758065 L87.1606452,86.741129 L87.1591935,86.741129 Z" id="Shape"></path>
            </g>
        </g>
    </g>
</svg>